<svg width="74" height="74" viewBox="0 0 74 74" fill="none" xmlns="http://www.w3.org/2000/svg">
<path d="M37 2.5C17.9553 2.5 2.5 17.9553 2.5 37C2.5 56.0447 17.9553 71.5 37 71.5C56.0447 71.5 71.5 56.0447 71.5 37C71.5 17.9553 56.0447 2.5 37 2.5ZM37 17.1C40.9313 17.1 44.1 20.2687 44.1 24.2C44.1 28.1313 40.9313 31.3 37 31.3C33.0687 31.3 29.9 28.1313 29.9 24.2C29.9 20.2687 33.0687 17.1 37 17.1ZM37 57.54C30.2021 57.54 24.1518 54.2225 20.4101 49.1089C20.5786 48.5756 20.9555 47.9845 21.65 47.3337C22.6578 46.3892 24.1598 45.4963 26.0007 44.7264C29.6926 43.1822 34.1413 42.38 37 42.38C39.8419 42.38 44.291 43.1819 47.9882 44.7267C49.8315 45.497 51.3368 46.3902 52.3472 47.3353C53.0433 47.9864 53.4208 48.5771 53.5895 49.1094C49.8478 54.2227 43.7976 57.54 37 57.54Z" stroke="#CACACA" stroke-width="5"/>
</svg>
